<svg xmlns="http://www.w3.org/2000/svg" xmlns:xlink="http://www.w3.org/1999/xlink" version="1.1" baseProfile="basic" x="0px" y="0px" viewBox="0 0 90 112.5" xml:space="preserve"><g><path d="M51.23,60.61l-0.756-0.138V47.479c1.23-0.141,2.191-1.176,2.191-2.443v-6.671c0-1.267-0.961-2.302-2.191-2.443v-3.437   c0-8.953-7.284-16.237-16.237-16.237S18,23.533,18,32.486v3.437c-1.229,0.141-2.191,1.176-2.191,2.443v6.671   c0,1.266,0.961,2.301,2.191,2.443v12.993l-0.756,0.138c-3.597,0.657-6.207,3.787-6.207,7.444v14.051   c0,1.596,1.299,2.895,2.895,2.895h40.609c1.596,0,2.895-1.299,2.895-2.895V68.054C57.437,64.398,54.826,61.267,51.23,60.61z    M45.207,59.509c-1.91-0.349-3.296-2.011-3.296-3.953v-0.845c0.286-0.247,0.578-0.487,0.849-0.755   c0.257-0.254,0.495-0.526,0.735-0.797c2.502-0.457,4.516-2.316,5.2-4.733v11.721L45.207,59.509z M22.022,36.026   c8.151-1.167,13.349-2.989,16.589-5.829c2.285,2.58,4.457,4.277,7.816,6.125l-0.596,7.122c-0.141,1.69-0.568,3.328-1.269,4.869   c-0.371,0.813-0.818,1.598-1.328,2.33c-0.2,0.288-0.42,0.562-0.641,0.836c-0.098,0.006-0.195,0.015-0.295,0.015h-4.86   c-0.491,0-0.889,0.398-0.889,0.889c0,0.491,0.398,0.889,0.889,0.889h3.418c-1.383,1.218-2.953,2.17-4.702,2.801   c-1.237,0.448-2.599,0.448-3.836,0c-5.399-1.951-9.197-6.908-9.676-12.629L22.022,36.026z M47.089,47.508   c-0.196,1.059-0.736,1.997-1.5,2.698c0.21-0.379,0.412-0.762,0.591-1.155c0.229-0.505,0.424-1.021,0.601-1.543H47.089z    M31.714,57.746c0.814,0.294,1.668,0.441,2.523,0.441c0.855,0,1.709-0.147,2.523-0.441c1.216-0.439,2.353-1.019,3.416-1.714   c0.185,2.24,1.628,4.159,3.699,4.942c-2.052,5.545-5.28,10.097-9.638,13.525c-4.358-3.429-7.586-7.981-9.637-13.525   c2.071-0.783,3.514-2.703,3.699-4.943C29.355,56.723,30.496,57.306,31.714,57.746z M50.887,38.366v6.671   c0,0.382-0.311,0.693-0.694,0.693h-2.926c0.153-0.703,0.275-1.414,0.335-2.137l0.495-5.921h2.096   C50.576,37.672,50.887,37.984,50.887,38.366z M34.237,18.027c7.973,0,14.459,6.487,14.459,14.459v3.408h-0.45l0-0.002   c0.03-0.353-0.153-0.69-0.465-0.858c-3.745-2.007-5.95-3.758-8.424-6.694c-0.161-0.191-0.395-0.306-0.645-0.315   c-0.244-0.013-0.493,0.086-0.668,0.264c-2.977,3.023-8.25,4.901-17.096,6.09c-0.469,0.063-0.807,0.483-0.767,0.955l0.047,0.559   h-0.45v-3.408C19.778,24.513,26.264,18.027,34.237,18.027z M17.587,45.037v-6.671c0-0.382,0.311-0.694,0.694-0.694h2.095   l0.495,5.921c0.061,0.725,0.175,1.437,0.328,2.137h-2.919C17.898,45.73,17.587,45.419,17.587,45.037z M19.778,47.508h1.92   c0.953,2.803,2.638,5.299,4.865,7.22v0.828c0,1.942-1.386,3.604-3.296,3.953l-3.49,0.638V47.508z M17.564,62.359l5.295-0.968   c2.249,6.185,5.885,11.217,10.845,14.941l0.533,0.4l0.533-0.4c4.96-3.723,8.596-8.755,10.845-14.941l5.295,0.968   c2.751,0.503,4.748,2.898,4.748,5.695v0.419l-6.627,5.971c-1.448,1.305-2.278,3.169-2.278,5.118v3.661H21.72v-3.661   c0-1.948-0.83-3.813-2.277-5.118l-6.628-5.971v-0.418C12.815,65.257,14.812,62.862,17.564,62.359z M12.815,82.105V70.866   l5.437,4.899c1.074,0.968,1.69,2.352,1.69,3.797v3.661h-6.01C13.316,83.222,12.815,82.721,12.815,82.105z M54.542,83.222h-6.01   v-3.661c0-1.445,0.615-2.83,1.689-3.797l5.438-4.899v11.24C55.659,82.721,55.158,83.222,54.542,83.222z"/><path d="M26.849,39.787c1.493-0.716,2.943-0.717,4.436,0c0.124,0.06,0.255,0.088,0.384,0.088c0.331,0,0.649-0.186,0.802-0.504   c0.213-0.442,0.026-0.974-0.417-1.186c-1.982-0.951-3.993-0.951-5.974,0c-0.443,0.212-0.629,0.743-0.417,1.186   C25.875,39.814,26.407,40,26.849,39.787z"/><path d="M36.743,39.787c1.492-0.716,2.942-0.717,4.436,0c0.124,0.06,0.255,0.088,0.384,0.088c0.331,0,0.649-0.186,0.802-0.504   c0.213-0.442,0.026-0.974-0.417-1.186c-1.982-0.951-3.992-0.951-5.974,0c-0.443,0.212-0.629,0.743-0.417,1.186   C35.77,39.814,36.303,39.998,36.743,39.787z"/><path d="M30.176,48.297c-0.342,0.352-0.335,0.915,0.016,1.257c1.319,1.286,2.678,1.928,4.039,1.928c1.36,0,2.723-0.641,4.049-1.925   c0.353-0.341,0.362-0.905,0.021-1.257c-0.342-0.354-0.905-0.361-1.257-0.021c-1.948,1.885-3.678,1.885-5.611,0.003   C31.082,47.939,30.518,47.944,30.176,48.297z"/></g><path d="M55.295,33.733c-0.129,0-0.259-0.028-0.38-0.085c-0.311-0.147-0.509-0.46-0.509-0.804v-5.835  c-2.314-0.42-4.075-2.45-4.075-4.883V9.963C50.332,7.227,52.558,5,55.295,5h18.704c2.737,0,4.964,2.227,4.964,4.963v12.162  c0,2.737-2.227,4.963-4.964,4.963H63.704l-7.845,6.442C55.697,33.664,55.497,33.733,55.295,33.733z M55.295,6.778  c-1.757,0-3.186,1.429-3.186,3.185v12.162c0,1.757,1.429,3.185,3.186,3.185c0.491,0,0.889,0.398,0.889,0.889v4.764l6.637-5.451  c0.159-0.131,0.359-0.202,0.564-0.202h10.614c1.757,0,3.186-1.429,3.186-3.185V9.963c0-1.757-1.429-3.185-3.186-3.185H55.295z"/><path d="M69.372,20.018h-2.595c-0.491,0-0.889-0.398-0.889-0.889v-2.854c0-0.491,0.398-0.889,0.889-0.889h1.707v-1.313h-1.707  c-0.491,0-0.889-0.398-0.889-0.889s0.398-0.889,0.889-0.889h2.595c0.491,0,0.889,0.398,0.889,0.889v3.091  c0,0.491-0.398,0.889-0.889,0.889h-1.707v1.076h1.707c0.491,0,0.889,0.398,0.889,0.889S69.864,20.018,69.372,20.018z"/><path d="M74.336,20.018c-0.491,0-0.889-0.398-0.889-0.889v-0.333h-2.056c-0.283,0-0.549-0.135-0.716-0.362  c-0.168-0.228-0.217-0.522-0.132-0.792l1.562-5c0.145-0.468,0.646-0.729,1.113-0.583c0.469,0.146,0.73,0.645,0.583,1.114  l-1.201,3.846h0.846v-0.5c0-0.491,0.398-0.889,0.889-0.889s0.889,0.398,0.889,0.889v2.611C75.225,19.62,74.827,20.018,74.336,20.018  z"/><path d="M58.55,15.299l0.677-1.803c0.102-0.273,0.064-0.579-0.102-0.819c-0.167-0.24-0.439-0.383-0.731-0.383h-3.167  c-0.491,0-0.889,0.398-0.889,0.889s0.398,0.889,0.889,0.889h1.884l-0.449,1.195h-0.5c-0.491,0-0.889,0.398-0.889,0.889  c0,0.436,0.319,0.781,0.733,0.857l-0.677,1.802c-0.172,0.46,0.061,0.972,0.52,1.145c0.103,0.039,0.208,0.057,0.313,0.057  c0.359,0,0.698-0.22,0.832-0.577l0.899-2.396h0.5c0.491,0,0.889-0.398,0.889-0.889C59.283,15.721,58.964,15.375,58.55,15.299z"/><path d="M60.959,20.256c-0.109,0-0.22-0.02-0.327-0.063c-0.456-0.181-0.68-0.697-0.499-1.154l2.444-6.182  c0.181-0.457,0.698-0.678,1.154-0.5c0.456,0.181,0.68,0.697,0.499,1.154l-2.444,6.182C61.648,20.043,61.313,20.256,60.959,20.256z"/><text x="0" y="105" fill="#000000" font-size="5px" font-weight="bold" font-family="'Helvetica Neue', Helvetica, Arial-Unicode, Arial, Sans-serif">Created by iconpacks</text><text x="0" y="110" fill="#000000" font-size="5px" font-weight="bold" font-family="'Helvetica Neue', Helvetica, Arial-Unicode, Arial, Sans-serif">from the Noun Project</text></svg>