<svg xmlns="http://www.w3.org/2000/svg" xmlns:xlink="http://www.w3.org/1999/xlink" version="1.1" x="0px" y="0px" viewBox="0 0 450 562.5" style="enable-background:new 0 0 450 450;" xml:space="preserve"><path d="M224.78,217.51c-0.01,0-0.02,0-0.02,0c-1.94-0.01-3.7-1.14-4.51-2.9c-7.78-16.83-20.89-36.67-33.56-55.86  c-19.83-30.01-38.55-58.37-38.55-76.88c0-42.53,34.6-77.14,77.14-77.14s77.14,34.6,77.14,77.14c0,18.94-19.19,47.56-39.52,77.85  c-12.66,18.87-25.74,38.38-33.59,54.93C228.47,216.4,226.71,217.51,224.78,217.51z M225.26,14.74c-37.02,0-67.14,30.12-67.14,67.14  c0,15.5,18.76,43.9,36.9,71.36c10.72,16.23,21.74,32.92,29.81,48.16c8.09-14.95,19.07-31.32,29.75-47.24  c18.59-27.72,37.82-56.39,37.82-72.28C292.4,44.86,262.28,14.74,225.26,14.74z"/><path d="M225.26,121.57c-21.89,0-39.69-17.81-39.69-39.69c0-21.89,17.81-39.69,39.69-39.69c21.89,0,39.69,17.81,39.69,39.69  C264.95,103.76,247.15,121.57,225.26,121.57z M225.26,52.18c-16.37,0-29.69,13.32-29.69,29.69s13.32,29.69,29.69,29.69  s29.69-13.32,29.69-29.69S241.63,52.18,225.26,52.18z"/><path d="M68.72,354.97c-0.01,0-0.02,0-0.02,0c-1.94-0.01-3.7-1.14-4.51-2.9c-6.19-13.39-16.65-29.23-26.77-44.54  c-15.94-24.13-31-46.92-31-62.02c0-34.57,28.12-62.69,62.69-62.69c34.57,0,62.69,28.12,62.69,62.69c0,15.45-15.43,38.46-31.77,62.81  c-10.1,15.06-20.55,30.63-26.78,43.79C72.41,353.86,70.65,354.97,68.72,354.97z M69.11,192.82c-29.05,0-52.69,23.63-52.69,52.69  c0,12.1,14.92,34.68,29.34,56.51c8.21,12.42,16.63,25.18,23.01,36.96c6.39-11.55,14.78-24.06,22.95-36.23  c14.78-22.04,30.07-44.83,30.07-57.24C121.79,216.46,98.16,192.82,69.11,192.82z"/><path d="M69.11,278.25c-18.05,0-32.74-14.69-32.74-32.74c0-18.05,14.69-32.74,32.74-32.74s32.74,14.69,32.74,32.74  C101.85,263.56,87.16,278.25,69.11,278.25z M69.11,222.77c-12.54,0-22.74,10.2-22.74,22.74c0,12.54,10.2,22.74,22.74,22.74  s22.74-10.2,22.74-22.74S81.65,222.77,69.11,222.77z"/><path d="M381.17,355.64c-0.01,0-0.02,0-0.02,0c-1.94-0.01-3.7-1.14-4.52-2.9c-3.83-8.29-10.37-18.18-16.69-27.75  c-10.62-16.08-19.79-29.96-19.79-40.01c0-22.75,18.51-41.26,41.26-41.26s41.26,18.51,41.26,41.26c0,10.28-9.4,24.29-20.28,40.52  c-6.31,9.41-12.84,19.14-16.7,27.29C384.86,354.52,383.1,355.64,381.17,355.64z M381.41,253.71c-17.24,0-31.26,14.02-31.26,31.26  c0,7.05,9.63,21.63,18.14,34.5c4.52,6.84,9.14,13.83,12.93,20.47c3.79-6.49,8.38-13.34,12.87-20.02  c8.71-12.99,18.59-27.71,18.59-34.95C412.67,267.73,398.65,253.71,381.41,253.71z"/><path d="M381.41,307.41c-12.37,0-22.44-10.07-22.44-22.44s10.07-22.44,22.44-22.44s22.44,10.07,22.44,22.44  S393.79,307.41,381.41,307.41z M381.41,272.53c-6.86,0-12.44,5.58-12.44,12.44s5.58,12.44,12.44,12.44s12.44-5.58,12.44-12.44  S388.27,272.53,381.41,272.53z"/><path d="M224.94,428.28c-0.01,0-0.02,0-0.02,0c-1.94-0.01-3.7-1.14-4.51-2.9c-5.06-10.94-13.63-23.91-21.92-36.46  c-13.17-19.94-25.61-38.77-25.61-51.44c0-28.88,23.5-52.38,52.38-52.38c28.88,0,52.38,23.5,52.38,52.38  c0,12.96-12.75,31.97-26.24,52.09c-8.28,12.34-16.84,25.1-21.93,35.85C228.63,427.17,226.87,428.28,224.94,428.28z M225.26,295.1  c-23.37,0-42.38,19.01-42.38,42.38c0,9.67,12.18,28.1,23.95,45.93c6.42,9.72,13.01,19.69,18.16,29c5.16-9.12,11.71-18.89,18.1-28.41  c12.07-17.99,24.55-36.6,24.55-46.52C267.64,314.11,248.63,295.1,225.26,295.1z"/><path d="M225.26,365.27c-15.32,0-27.79-12.46-27.79-27.79s12.46-27.79,27.79-27.79s27.79,12.46,27.79,27.79  S240.58,365.27,225.26,365.27z M225.26,319.69c-9.81,0-17.79,7.98-17.79,17.79s7.98,17.79,17.79,17.79s17.79-7.98,17.79-17.79  S235.07,319.69,225.26,319.69z"/><path d="M224.78,245.04c-22.07,0-40.03-14.59-40.03-32.53c0-13.19,9.66-24.98,24.6-30.03c2.62-0.88,5.45,0.52,6.34,3.14  c0.88,2.62-0.52,5.45-3.14,6.34c-10.81,3.66-17.8,11.73-17.8,20.56c0,12.42,13.47,22.53,30.03,22.53  c18.09,0,28.06-10.38,29.68-20.03c1.67-9.93-4.94-18.74-17.23-22.99c-2.61-0.9-4-3.75-3.09-6.36c0.9-2.61,3.75-3.99,6.36-3.09  c16.97,5.86,26.32,19.24,23.83,34.09C262.03,230.34,248.68,245.04,224.78,245.04z"/><path d="M381.03,377.16c-18.33,0-33.23-12.2-33.23-27.18c0-10.72,7.7-20.46,19.61-24.82c2.59-0.95,5.46,0.38,6.41,2.98  s-0.38,5.46-2.98,6.41c-7.93,2.9-13.05,8.95-13.05,15.42c0,9.48,10.42,17.18,23.23,17.18c12.81,0,23.23-7.71,23.23-17.18  c0-6.34-4.98-12.35-12.68-15.29c-2.58-0.99-3.87-3.88-2.89-6.45c0.99-2.58,3.88-3.87,6.45-2.89c11.61,4.44,19.12,14.11,19.12,24.63  C414.26,364.96,399.35,377.16,381.03,377.16z"/><path d="M68.72,377.16c-18.33,0-33.24-12.2-33.24-27.18c0-11.05,8.04-20.91,20.48-25.12c2.62-0.88,5.45,0.52,6.34,3.13  c0.89,2.62-0.52,5.45-3.13,6.34c-8.31,2.81-13.68,8.95-13.68,15.65c0,9.48,10.42,17.18,23.24,17.18s23.24-7.71,23.24-17.18  c0-6.63-5.3-12.75-13.51-15.59c-2.61-0.9-3.99-3.75-3.09-6.36c0.9-2.61,3.75-3.99,6.36-3.09c12.3,4.25,20.24,14.08,20.24,25.04  C101.96,364.96,87.05,377.16,68.72,377.16z"/><path d="M224.94,446.74c-15.71,0-28.49-10.52-28.49-23.46c0-9.56,6.91-18.07,17.59-21.69c2.61-0.89,5.45,0.52,6.34,3.13  c0.89,2.61-0.51,5.45-3.13,6.34c-6.56,2.22-10.8,7.02-10.8,12.22c0,7.3,8.47,13.46,18.49,13.46s18.49-6.16,18.49-13.46  c0-5.15-4.19-9.93-10.67-12.17c-2.61-0.9-3.99-3.75-3.09-6.36c0.9-2.61,3.75-3.99,6.36-3.09c10.57,3.66,17.39,12.15,17.39,21.62  C253.44,436.22,240.65,446.74,224.94,446.74z"/><path d="M204.46,419.24c-0.71,0-1.43-0.15-2.12-0.47L90.47,366.35c-2.5-1.17-3.58-4.15-2.41-6.65c1.17-2.5,4.15-3.58,6.65-2.41  l111.87,52.41c2.5,1.17,3.58,4.15,2.41,6.65C208.14,418.17,206.34,419.24,204.46,419.24z M245.42,419.23  c-1.88,0-3.68-1.06-4.53-2.88c-1.17-2.5-0.1-5.48,2.4-6.65l111.74-52.4c2.5-1.17,5.48-0.1,6.65,2.4s0.1,5.48-2.4,6.65l-111.74,52.4  C246.86,419.08,246.14,419.23,245.42,419.23z M87.88,338.68c-1.38,0-2.76-0.57-3.75-1.69c-1.83-2.07-1.64-5.23,0.43-7.06  l113.64-100.58c2.07-1.83,5.23-1.64,7.06,0.43c1.83,2.07,1.64,5.23-0.43,7.06L91.19,337.42C90.24,338.27,89.06,338.68,87.88,338.68z  "/><path d="M381.17,192.75c-0.01,0-0.02,0-0.02,0c-1.94-0.01-3.7-1.14-4.52-2.9c-3.83-8.29-10.37-18.18-16.69-27.75  c-10.62-16.08-19.79-29.96-19.79-40.01c0-22.75,18.51-41.26,41.26-41.26s41.26,18.51,41.26,41.26c0,10.28-9.4,24.29-20.28,40.52  c-6.31,9.41-12.84,19.14-16.7,27.29C384.86,191.64,383.1,192.75,381.17,192.75z M381.41,90.82c-17.24,0-31.26,14.02-31.26,31.26  c0,7.05,9.64,21.63,18.14,34.5c4.52,6.84,9.14,13.83,12.93,20.47c3.79-6.49,8.38-13.34,12.86-20.02  c8.71-12.99,18.59-27.71,18.59-34.95C412.67,104.85,398.65,90.82,381.41,90.82z"/><path d="M381.41,144.52c-12.37,0-22.44-10.07-22.44-22.44c0-12.37,10.07-22.44,22.44-22.44s22.44,10.07,22.44,22.44  C403.85,134.46,393.79,144.52,381.41,144.52z M381.41,109.65c-6.86,0-12.44,5.58-12.44,12.44c0,6.86,5.58,12.44,12.44,12.44  s12.44-5.58,12.44-12.44C393.85,115.23,388.27,109.65,381.41,109.65z"/><path d="M381.03,207.04c-14.59,0-26.46-9.81-26.46-21.86c0-8.41,5.65-15.93,14.75-19.62c2.56-1.04,5.48,0.19,6.51,2.75  c1.04,2.56-0.19,5.48-2.75,6.51c-5.25,2.13-8.51,6.1-8.51,10.36c0,6.43,7.54,11.86,16.46,11.86c8.92,0,16.46-5.43,16.46-11.86  c0-4.15-3.14-8.07-8.2-10.23c-2.54-1.08-3.72-4.02-2.64-6.56c1.08-2.54,4.03-3.72,6.56-2.64c8.8,3.76,14.27,11.2,14.27,19.42  C407.49,197.23,395.62,207.04,381.03,207.04z"/><path d="M259.66,218.48c-2.18,0-4.18-1.44-4.81-3.64c-0.75-2.66,0.79-5.42,3.45-6.17l99.9-28.3c2.65-0.75,5.42,0.79,6.17,3.45  c0.75,2.66-0.79,5.42-3.45,6.17l-99.9,28.3C260.57,218.42,260.11,218.48,259.66,218.48z"/><text x="0" y="465" fill="#000000" font-size="5px" font-weight="bold" font-family="'Helvetica Neue', Helvetica, Arial-Unicode, Arial, Sans-serif">Created by SAM Designs</text><text x="0" y="470" fill="#000000" font-size="5px" font-weight="bold" font-family="'Helvetica Neue', Helvetica, Arial-Unicode, Arial, Sans-serif">from the Noun Project</text></svg>