<svg xmlns="http://www.w3.org/2000/svg" xmlns:xlink="http://www.w3.org/1999/xlink" version="1.1" x="0px" y="0px" viewBox="0 0 98 122.5" style="enable-background:new 0 0 98 98;" xml:space="preserve"><path d="M52.483,54.528l-14.482,0.073c0.512-1.912,1.081-3.935,1.636-5.908c1.385-4.923,2.581-9.175,2.763-11.142  c0.413-4.453-1.646-8.588-4.789-9.619c-2.189-0.719-4.356,0.284-5.796,2.679L15.787,57.271c-0.544-0.711-1.399-1.172-2.361-1.172  h-6.46c-1.64,0-2.975,1.334-2.975,2.975v31.959c0,1.64,1.334,2.975,2.975,2.975h6.46c1.377,0,2.535-0.941,2.872-2.213l3.908,2.051  c0.202,0.106,0.428,0.162,0.656,0.162h24.751c3.299,0,5.984-2.684,5.984-5.984c0-1.384-0.473-2.66-1.265-3.675  c2.094-0.935,3.557-3.04,3.557-5.482c0-1.389-0.474-2.67-1.268-3.687c2.095-0.934,3.56-3.041,3.56-5.483  c0-1.389-0.474-2.67-1.268-3.687c2.095-0.934,3.56-3.041,3.56-5.483C58.473,57.218,55.789,54.528,52.483,54.528z M13.426,91.183  h-6.46c-0.08,0-0.151-0.07-0.151-0.151V59.074c0-0.08,0.07-0.151,0.151-0.151h6.46c0.08,0,0.151,0.07,0.151,0.151v31.959  C13.577,91.112,13.507,91.183,13.426,91.183z M52.49,63.699H41.607c-0.78,0-1.412,0.632-1.412,1.412s0.632,1.412,1.412,1.412h8.591  c1.742,0,3.16,1.424,3.16,3.173s-1.417,3.173-3.16,3.173H39.315c-0.78,0-1.412,0.632-1.412,1.412s0.632,1.412,1.412,1.412h8.591  c1.742,0,3.16,1.424,3.16,3.173s-1.417,3.173-3.16,3.173H37.023c-0.78,0-1.412,0.632-1.412,1.412s0.632,1.412,1.412,1.412h8.591  c1.742,0,3.16,1.417,3.16,3.16c0,1.742-1.417,3.16-3.16,3.16H21.211l-4.81-2.525V61.73l17.834-29.663  c0.52-0.865,1.375-1.819,2.496-1.451c1.629,0.534,3.166,3.344,2.857,6.674c-0.159,1.711-1.435,6.249-2.67,10.639  c-0.734,2.61-1.493,5.31-2.118,7.742c-0.109,0.424-0.015,0.874,0.254,1.219c0.269,0.345,0.676,0.54,1.121,0.544l16.315-0.082  c1.742,0,3.16,1.424,3.16,3.173S54.232,63.699,52.49,63.699z M11.609,83.88v3.512c0,0.78-0.632,1.412-1.412,1.412  s-1.412-0.632-1.412-1.412V83.88c0-0.78,0.632-1.412,1.412-1.412S11.609,83.1,11.609,83.88z M93.317,11.553  c-8.813-5.229-15.777-7.56-22.58-7.56c0,0,0,0,0,0c-6.803,0-13.768,2.332-22.58,7.56c-0.429,0.254-0.692,0.716-0.692,1.214v18.867  c0,6.826,2.929,12.539,8.471,16.522l13.976,10.045c0.246,0.177,0.535,0.265,0.824,0.265s0.578-0.088,0.824-0.265l13.976-10.045  c5.542-3.984,8.472-9.697,8.472-16.522V12.768C94.008,12.269,93.745,11.808,93.317,11.553z M91.184,31.635  c0,5.878-2.523,10.798-7.296,14.229l-13.152,9.453l-13.152-9.453c-4.773-3.43-7.295-8.35-7.295-14.229V13.576  c15.564-9.07,25.331-9.07,40.895,0V31.635z M52.054,15.422v16.212c0,5.362,2.207,9.667,6.561,12.796l11.298,8.12  c0.246,0.177,0.535,0.265,0.824,0.265s0.578-0.088,0.824-0.265l11.298-8.12c4.354-3.129,6.561-7.434,6.561-12.796V15.422  c0-0.513-0.278-0.986-0.727-1.234c-13.425-7.453-22.487-7.453-35.913,0C52.332,14.437,52.054,14.909,52.054,15.422z M54.878,16.259  c11.904-6.44,19.814-6.439,31.718,0v15.376c0,4.401-1.812,7.934-5.385,10.502l-10.474,7.528l-10.474-7.528  c-3.573-2.568-5.385-6.102-5.385-10.502V16.259z M66.352,38.64c0.123,0.011,0.246,0.016,0.368,0.016c1.1,0,2.155-0.434,2.941-1.22  l13.262-13.262c1.624-1.624,1.624-4.268,0-5.892c-1.625-1.624-4.268-1.625-5.892,0l-9.963,9.963l-2.92-3.675  c-0.692-0.87-1.681-1.419-2.785-1.545c-1.105-0.127-2.192,0.185-3.062,0.877c-0.87,0.692-1.419,1.681-1.545,2.785  c-0.126,1.104,0.185,2.192,0.877,3.062l5.692,7.162C64.034,37.904,65.135,38.533,66.352,38.64z M59.562,27.008  c0.041-0.355,0.217-0.673,0.497-0.895c0.239-0.19,0.529-0.291,0.83-0.291c0.051,0,0.103,0.003,0.154,0.009  c0.355,0.041,0.673,0.217,0.895,0.496l3.905,4.914c0.25,0.315,0.623,0.508,1.025,0.531c0.401,0.023,0.794-0.127,1.079-0.411  l11.082-11.082c0.523-0.524,1.375-0.523,1.898,0c0.523,0.523,0.523,1.375,0,1.898L67.664,35.439  c-0.385,0.385-0.833,0.408-1.065,0.388c-0.399-0.035-0.759-0.243-0.988-0.571c-0.017-0.024-0.034-0.047-0.052-0.07l-5.716-7.193  C59.621,27.712,59.521,27.363,59.562,27.008z"/><text x="0" y="113" fill="#000000" font-size="5px" font-weight="bold" font-family="'Helvetica Neue', Helvetica, Arial-Unicode, Arial, Sans-serif">Created by MUHAMMAT SUKIRMAN</text><text x="0" y="118" fill="#000000" font-size="5px" font-weight="bold" font-family="'Helvetica Neue', Helvetica, Arial-Unicode, Arial, Sans-serif">from the Noun Project</text></svg>